<mxfile host="Electron" modified="2024-05-30T09:30:38.601Z" agent="Mozilla/5.0 (Windows NT 10.0; Win64; x64) AppleWebKit/537.36 (KHTML, like Gecko) draw.io/22.1.16 Chrome/120.0.6099.109 Electron/28.1.0 Safari/537.36" etag="jV8jjc6Cmmwau_RPmxmz" version="22.1.16" type="device">
  <diagram name="Page-1" id="2f1kc_ukeR7QWY1sk06c">
    <mxGraphModel dx="3389" dy="2871" grid="1" gridSize="10" guides="1" tooltips="1" connect="1" arrows="1" fold="1" page="1" pageScale="1" pageWidth="900" pageHeight="1600" math="0" shadow="0">
      <root>
        <mxCell id="0" />
        <mxCell id="1" parent="0" />
        <mxCell id="TcHvKYpfrDNnKEBKE9mk-52" value="" style="rounded=0;whiteSpace=wrap;html=1;" vertex="1" parent="1">
          <mxGeometry x="1190" y="-1560" width="1110" height="1490" as="geometry" />
        </mxCell>
        <mxCell id="TcHvKYpfrDNnKEBKE9mk-15" value="&lt;div style=&quot;display: flex; justify-content: center; text-align: center; align-items: baseline; line-height: 1.25; margin-top: -2px;&quot;&gt;&lt;span style=&quot;color: rgb(0, 0, 0);&quot;&gt;&lt;font style=&quot;font-size: 24px;&quot;&gt;&lt;b&gt;Authentication Service&lt;/b&gt;&lt;/font&gt;&lt;/span&gt;&lt;/div&gt;" style="rounded=1;arcSize=20;whiteSpace=wrap;overflow=block;blockSpacing=1;html=1;fontSize=13;spacing=0;strokeWidth=NaN;" vertex="1" parent="1">
          <mxGeometry x="1680" y="-1520" width="170" height="130" as="geometry" />
        </mxCell>
        <mxCell id="TcHvKYpfrDNnKEBKE9mk-16" value="&lt;div style=&quot;display: flex; justify-content: center; text-align: center; align-items: baseline; line-height: 1.25; margin-top: -2px;&quot;&gt;&lt;span style=&quot;color: rgb(0, 0, 0);&quot;&gt;&lt;font style=&quot;font-size: 24px;&quot;&gt;&lt;b&gt;User Service&lt;/b&gt;&lt;/font&gt;&lt;/span&gt;&lt;/div&gt;" style="rounded=1;arcSize=20;whiteSpace=wrap;overflow=block;blockSpacing=1;html=1;fontSize=13;spacing=0;strokeWidth=NaN;" vertex="1" parent="1">
          <mxGeometry x="1680" y="-800" width="190" height="105" as="geometry" />
        </mxCell>
        <mxCell id="TcHvKYpfrDNnKEBKE9mk-17" value="&lt;div style=&quot;display: flex; justify-content: center; text-align: center; align-items: baseline; line-height: 1.25; margin-top: -2px;&quot;&gt;&lt;span style=&quot;color: rgb(0, 0, 0);&quot;&gt;&lt;font style=&quot;font-size: 24px;&quot;&gt;&lt;b&gt;Post Service&lt;/b&gt;&lt;/font&gt;&lt;/span&gt;&lt;/div&gt;" style="rounded=1;arcSize=20;whiteSpace=wrap;overflow=block;blockSpacing=1;html=1;fontSize=13;spacing=0;strokeWidth=1;perimeterSpacing=4;" vertex="1" parent="1">
          <mxGeometry x="1680" y="-980" width="180" height="130" as="geometry" />
        </mxCell>
        <mxCell id="TcHvKYpfrDNnKEBKE9mk-63" style="edgeStyle=orthogonalEdgeStyle;rounded=0;orthogonalLoop=1;jettySize=auto;html=1;exitX=1;exitY=0.5;exitDx=0;exitDy=0;startArrow=none;startFill=0;endArrow=none;endFill=0;dashed=1;dashPattern=8 8;strokeWidth=3;" edge="1" parent="1" source="TcHvKYpfrDNnKEBKE9mk-18" target="TcHvKYpfrDNnKEBKE9mk-26">
          <mxGeometry relative="1" as="geometry" />
        </mxCell>
        <mxCell id="TcHvKYpfrDNnKEBKE9mk-18" value="&lt;div style=&quot;display: flex; justify-content: center; text-align: center; align-items: baseline; line-height: 1.25; margin-top: -2px;&quot;&gt;&lt;span style=&quot;color: rgb(0, 0, 0);&quot;&gt;&lt;font style=&quot;font-size: 24px;&quot;&gt;&lt;b&gt;Comment&amp;nbsp;&lt;/b&gt;&lt;/font&gt;&lt;/span&gt;&lt;span style=&quot;color: rgb(0, 0, 0);&quot;&gt;&lt;font style=&quot;font-size: 24px;&quot;&gt;&lt;b&gt;&lt;br&gt;&lt;/b&gt;&lt;/font&gt;&lt;/span&gt;&lt;span style=&quot;color: rgb(0, 0, 0);&quot;&gt;&lt;font style=&quot;font-size: 24px;&quot;&gt;&lt;b&gt;&lt;br&gt;&lt;/b&gt;&lt;/font&gt;&lt;/span&gt;&lt;span style=&quot;color: rgb(0, 0, 0);&quot;&gt;&lt;font style=&quot;font-size: 24px;&quot;&gt;&lt;b&gt;Service&lt;/b&gt;&lt;/font&gt;&lt;/span&gt;&lt;/div&gt;" style="rounded=1;arcSize=20;whiteSpace=wrap;overflow=block;blockSpacing=1;html=1;fontSize=13;spacing=0;strokeWidth=NaN;" vertex="1" parent="1">
          <mxGeometry x="1680" y="-480" width="200" height="120" as="geometry" />
        </mxCell>
        <mxCell id="TcHvKYpfrDNnKEBKE9mk-62" style="edgeStyle=orthogonalEdgeStyle;rounded=0;orthogonalLoop=1;jettySize=auto;html=1;exitX=1;exitY=0.5;exitDx=0;exitDy=0;startArrow=none;startFill=0;endArrow=none;endFill=0;dashed=1;dashPattern=8 8;strokeWidth=3;" edge="1" parent="1" source="TcHvKYpfrDNnKEBKE9mk-19" target="TcHvKYpfrDNnKEBKE9mk-26">
          <mxGeometry relative="1" as="geometry">
            <Array as="points">
              <mxPoint x="2160" y="-590" />
            </Array>
          </mxGeometry>
        </mxCell>
        <mxCell id="TcHvKYpfrDNnKEBKE9mk-19" value="&lt;div style=&quot;display: flex; justify-content: center; text-align: center; align-items: baseline; line-height: 1.25; margin-top: -2px;&quot;&gt;&lt;span style=&quot;color: rgb(0, 0, 0);&quot;&gt;&lt;font style=&quot;font-size: 24px;&quot;&gt;&lt;b&gt;Like Service&lt;/b&gt;&lt;/font&gt;&lt;/span&gt;&lt;/div&gt;" style="rounded=1;arcSize=20;whiteSpace=wrap;overflow=block;blockSpacing=1;html=1;fontSize=13;spacing=0;strokeWidth=NaN;" vertex="1" parent="1">
          <mxGeometry x="1680" y="-660" width="190" height="140" as="geometry" />
        </mxCell>
        <mxCell id="TcHvKYpfrDNnKEBKE9mk-20" value="&lt;div style=&quot;display: flex; justify-content: center; text-align: center; align-items: baseline; line-height: 1.25; margin-top: -2px;&quot;&gt;&lt;span style=&quot;color: rgb(0, 0, 0);&quot;&gt;&lt;font style=&quot;font-size: 24px;&quot;&gt;&lt;b&gt;Follow Service&lt;/b&gt;&lt;/font&gt;&lt;/span&gt;&lt;/div&gt;" style="rounded=1;arcSize=20;whiteSpace=wrap;overflow=block;blockSpacing=1;html=1;fontSize=13;spacing=0;strokeWidth=NaN;" vertex="1" parent="1">
          <mxGeometry x="1680" y="-1350" width="170" height="120" as="geometry" />
        </mxCell>
        <mxCell id="TcHvKYpfrDNnKEBKE9mk-21" value="&lt;div style=&quot;display: flex; justify-content: center; text-align: center; align-items: baseline; line-height: 1.25; margin-top: -2px;&quot;&gt;&lt;span style=&quot;color: rgb(0, 0, 0);&quot;&gt;&lt;font style=&quot;font-size: 24px;&quot;&gt;&lt;b&gt;Search Service&lt;/b&gt;&lt;/font&gt;&lt;/span&gt;&lt;/div&gt;" style="rounded=1;arcSize=20;whiteSpace=wrap;overflow=block;blockSpacing=1;html=1;fontSize=13;spacing=0;strokeWidth=NaN;" vertex="1" parent="1">
          <mxGeometry x="1680" y="-1170" width="170" height="130" as="geometry" />
        </mxCell>
        <mxCell id="TcHvKYpfrDNnKEBKE9mk-23" value="&lt;div style=&quot;display: flex; justify-content: center; text-align: center; align-items: baseline; line-height: 1.25; margin-top: -2px;&quot;&gt;&lt;span style=&quot;color: rgb(0, 0, 0);&quot;&gt;&lt;font style=&quot;font-size: 24px;&quot;&gt;&lt;b&gt;Explore Service&lt;/b&gt;&lt;/font&gt;&lt;/span&gt;&lt;/div&gt;" style="rounded=1;arcSize=20;whiteSpace=wrap;overflow=block;blockSpacing=1;html=1;fontSize=13;spacing=0;strokeWidth=NaN;" vertex="1" parent="1">
          <mxGeometry x="1680" y="-310.5" width="200" height="130.5" as="geometry" />
        </mxCell>
        <mxCell id="TcHvKYpfrDNnKEBKE9mk-26" value="" style="html=1;overflow=block;blockSpacing=1;whiteSpace=wrap;shape=mxgraph.cisco.storage.relational_database;verticalLabelPosition=bottom;verticalAlign=top;fontSize=16.7;spacing=0;strokeOpacity=100;fillOpacity=100;rounded=1;absoluteArcSize=1;arcSize=9;strokeWidth=1.5;lucidId=rqfCD9ZUjD3d;" vertex="1" parent="1">
          <mxGeometry x="2120" y="-1000" width="100" height="150" as="geometry" />
        </mxCell>
        <mxCell id="TcHvKYpfrDNnKEBKE9mk-38" value="" style="outlineConnect=0;dashed=0;verticalLabelPosition=bottom;verticalAlign=top;align=center;html=1;shape=mxgraph.aws3.mobile_client;fillColor=#D2D3D3;gradientColor=none;strokeColor=default;fontFamily=Helvetica;fontSize=12;fontColor=#000000;" vertex="1" parent="1">
          <mxGeometry x="-450" y="-1020" width="80" height="130" as="geometry" />
        </mxCell>
        <mxCell id="TcHvKYpfrDNnKEBKE9mk-39" value="" style="verticalLabelPosition=bottom;aspect=fixed;html=1;shape=mxgraph.salesforce.web;dashed=0;strokeColor=default;align=center;verticalAlign=top;fontFamily=Helvetica;fontSize=12;fontColor=#000000;fillColor=#2E73B8;gradientColor=none;" vertex="1" parent="1">
          <mxGeometry x="-510" y="-770" width="227.84" height="180" as="geometry" />
        </mxCell>
        <mxCell id="TcHvKYpfrDNnKEBKE9mk-81" style="edgeStyle=orthogonalEdgeStyle;rounded=0;orthogonalLoop=1;jettySize=auto;html=1;exitX=1;exitY=0.25;exitDx=0;exitDy=0;entryX=-0.006;entryY=0.402;entryDx=0;entryDy=0;entryPerimeter=0;jumpSize=6;strokeWidth=3;" edge="1" parent="1" source="TcHvKYpfrDNnKEBKE9mk-40" target="TcHvKYpfrDNnKEBKE9mk-52">
          <mxGeometry relative="1" as="geometry">
            <mxPoint x="700" y="-930" as="targetPoint" />
          </mxGeometry>
        </mxCell>
        <mxCell id="TcHvKYpfrDNnKEBKE9mk-40" value="" style="whiteSpace=wrap;html=1;aspect=fixed;dashed=1;strokeColor=#000000;align=center;verticalAlign=top;fontFamily=Helvetica;fontSize=12;fontColor=#000000;fillColor=none;gradientColor=none;rounded=1;" vertex="1" parent="1">
          <mxGeometry x="-690" y="-1095" width="560" height="560" as="geometry" />
        </mxCell>
        <mxCell id="TcHvKYpfrDNnKEBKE9mk-41" value="&lt;font style=&quot;font-size: 48px;&quot;&gt;User&lt;/font&gt;" style="text;html=1;align=center;verticalAlign=middle;resizable=0;points=[];autosize=1;strokeColor=none;fillColor=none;fontSize=12;fontFamily=Helvetica;fontColor=#000000;" vertex="1" parent="1">
          <mxGeometry x="-440" y="-1180" width="120" height="70" as="geometry" />
        </mxCell>
        <mxCell id="TcHvKYpfrDNnKEBKE9mk-43" style="edgeStyle=orthogonalEdgeStyle;rounded=0;orthogonalLoop=1;jettySize=auto;html=1;exitX=0.5;exitY=1;exitDx=0;exitDy=0;fontFamily=Helvetica;fontSize=12;fontColor=default;endArrow=classic;endFill=1;strokeWidth=3;strokeColor=#004C99;startArrow=none;startFill=0;dashed=1;dashPattern=8 8;" edge="1" parent="1">
          <mxGeometry relative="1" as="geometry">
            <mxPoint x="-510" y="-540" as="sourcePoint" />
            <mxPoint x="-509" y="-260" as="targetPoint" />
          </mxGeometry>
        </mxCell>
        <mxCell id="TcHvKYpfrDNnKEBKE9mk-57" style="edgeStyle=orthogonalEdgeStyle;rounded=0;orthogonalLoop=1;jettySize=auto;html=1;exitX=1;exitY=0.5;exitDx=0;exitDy=0;entryX=0.639;entryY=0.024;entryDx=0;entryDy=0;entryPerimeter=0;startArrow=none;startFill=0;endArrow=none;endFill=0;dashed=1;dashPattern=8 8;strokeWidth=3;" edge="1" parent="1" source="TcHvKYpfrDNnKEBKE9mk-15" target="TcHvKYpfrDNnKEBKE9mk-26">
          <mxGeometry relative="1" as="geometry" />
        </mxCell>
        <mxCell id="TcHvKYpfrDNnKEBKE9mk-58" style="edgeStyle=orthogonalEdgeStyle;rounded=0;orthogonalLoop=1;jettySize=auto;html=1;exitX=1;exitY=0.5;exitDx=0;exitDy=0;entryX=0.12;entryY=0.08;entryDx=0;entryDy=0;entryPerimeter=0;startArrow=none;startFill=0;endArrow=none;endFill=0;dashed=1;dashPattern=8 8;strokeWidth=3;" edge="1" parent="1" source="TcHvKYpfrDNnKEBKE9mk-20" target="TcHvKYpfrDNnKEBKE9mk-26">
          <mxGeometry relative="1" as="geometry" />
        </mxCell>
        <mxCell id="TcHvKYpfrDNnKEBKE9mk-59" style="edgeStyle=orthogonalEdgeStyle;rounded=0;orthogonalLoop=1;jettySize=auto;html=1;exitX=1;exitY=0.5;exitDx=0;exitDy=0;entryX=0.157;entryY=0.466;entryDx=0;entryDy=0;entryPerimeter=0;startArrow=none;startFill=0;endArrow=none;endFill=0;dashed=1;dashPattern=8 8;strokeWidth=3;" edge="1" parent="1" source="TcHvKYpfrDNnKEBKE9mk-17" target="TcHvKYpfrDNnKEBKE9mk-26">
          <mxGeometry relative="1" as="geometry">
            <Array as="points">
              <mxPoint x="1860" y="-930" />
            </Array>
          </mxGeometry>
        </mxCell>
        <mxCell id="TcHvKYpfrDNnKEBKE9mk-60" style="edgeStyle=orthogonalEdgeStyle;rounded=0;orthogonalLoop=1;jettySize=auto;html=1;exitX=1;exitY=0.5;exitDx=0;exitDy=0;entryX=0.5;entryY=0;entryDx=0;entryDy=0;entryPerimeter=0;startArrow=none;startFill=0;endArrow=none;endFill=0;dashed=1;dashPattern=8 8;strokeWidth=3;" edge="1" parent="1" source="TcHvKYpfrDNnKEBKE9mk-21" target="TcHvKYpfrDNnKEBKE9mk-26">
          <mxGeometry relative="1" as="geometry" />
        </mxCell>
        <mxCell id="TcHvKYpfrDNnKEBKE9mk-61" style="edgeStyle=orthogonalEdgeStyle;rounded=0;orthogonalLoop=1;jettySize=auto;html=1;exitX=1;exitY=0.5;exitDx=0;exitDy=0;entryX=0.12;entryY=0.92;entryDx=0;entryDy=0;entryPerimeter=0;startArrow=none;startFill=0;endArrow=none;endFill=0;dashed=1;dashPattern=8 8;strokeWidth=3;" edge="1" parent="1" source="TcHvKYpfrDNnKEBKE9mk-16" target="TcHvKYpfrDNnKEBKE9mk-26">
          <mxGeometry relative="1" as="geometry" />
        </mxCell>
        <mxCell id="TcHvKYpfrDNnKEBKE9mk-64" style="edgeStyle=orthogonalEdgeStyle;rounded=0;orthogonalLoop=1;jettySize=auto;html=1;exitX=1;exitY=0.5;exitDx=0;exitDy=0;entryX=0.88;entryY=0.92;entryDx=0;entryDy=0;entryPerimeter=0;startArrow=none;startFill=0;endArrow=none;endFill=0;dashed=1;dashPattern=8 8;strokeWidth=3;" edge="1" parent="1" source="TcHvKYpfrDNnKEBKE9mk-23" target="TcHvKYpfrDNnKEBKE9mk-26">
          <mxGeometry relative="1" as="geometry" />
        </mxCell>
        <mxCell id="TcHvKYpfrDNnKEBKE9mk-66" style="edgeStyle=orthogonalEdgeStyle;rounded=0;orthogonalLoop=1;jettySize=auto;html=1;exitX=0.375;exitY=0;exitDx=0;exitDy=0;entryX=0;entryY=0.5;entryDx=0;entryDy=0;startArrow=none;startFill=0;endArrow=none;endFill=0;dashed=1;dashPattern=8 8;strokeWidth=3;" edge="1" parent="1" source="TcHvKYpfrDNnKEBKE9mk-65" target="TcHvKYpfrDNnKEBKE9mk-15">
          <mxGeometry relative="1" as="geometry" />
        </mxCell>
        <mxCell id="TcHvKYpfrDNnKEBKE9mk-67" style="edgeStyle=orthogonalEdgeStyle;rounded=0;orthogonalLoop=1;jettySize=auto;html=1;exitX=0.5;exitY=0;exitDx=0;exitDy=0;entryX=0;entryY=0.5;entryDx=0;entryDy=0;startArrow=none;startFill=0;endArrow=none;endFill=0;dashed=1;dashPattern=8 8;strokeWidth=3;" edge="1" parent="1" source="TcHvKYpfrDNnKEBKE9mk-65" target="TcHvKYpfrDNnKEBKE9mk-20">
          <mxGeometry relative="1" as="geometry" />
        </mxCell>
        <mxCell id="TcHvKYpfrDNnKEBKE9mk-68" style="edgeStyle=orthogonalEdgeStyle;rounded=0;orthogonalLoop=1;jettySize=auto;html=1;exitX=0.625;exitY=0;exitDx=0;exitDy=0;entryX=0;entryY=0.5;entryDx=0;entryDy=0;startArrow=none;startFill=0;endArrow=none;endFill=0;dashed=1;dashPattern=8 8;strokeWidth=3;" edge="1" parent="1" source="TcHvKYpfrDNnKEBKE9mk-65" target="TcHvKYpfrDNnKEBKE9mk-21">
          <mxGeometry relative="1" as="geometry" />
        </mxCell>
        <mxCell id="TcHvKYpfrDNnKEBKE9mk-69" style="edgeStyle=orthogonalEdgeStyle;rounded=0;orthogonalLoop=1;jettySize=auto;html=1;exitX=1;exitY=0.5;exitDx=0;exitDy=0;startArrow=none;startFill=0;endArrow=none;endFill=0;dashed=1;dashPattern=8 8;strokeWidth=3;" edge="1" parent="1" source="TcHvKYpfrDNnKEBKE9mk-65" target="TcHvKYpfrDNnKEBKE9mk-17">
          <mxGeometry relative="1" as="geometry" />
        </mxCell>
        <mxCell id="TcHvKYpfrDNnKEBKE9mk-70" style="edgeStyle=orthogonalEdgeStyle;rounded=0;orthogonalLoop=1;jettySize=auto;html=1;exitX=0.625;exitY=1;exitDx=0;exitDy=0;entryX=0;entryY=0.5;entryDx=0;entryDy=0;startArrow=none;startFill=0;endArrow=none;endFill=0;dashed=1;dashPattern=8 8;strokeWidth=3;" edge="1" parent="1" source="TcHvKYpfrDNnKEBKE9mk-65" target="TcHvKYpfrDNnKEBKE9mk-16">
          <mxGeometry relative="1" as="geometry" />
        </mxCell>
        <mxCell id="TcHvKYpfrDNnKEBKE9mk-71" style="edgeStyle=orthogonalEdgeStyle;rounded=0;orthogonalLoop=1;jettySize=auto;html=1;exitX=0.5;exitY=1;exitDx=0;exitDy=0;entryX=0;entryY=0.5;entryDx=0;entryDy=0;startArrow=none;startFill=0;endArrow=none;endFill=0;dashed=1;dashPattern=8 8;strokeWidth=3;" edge="1" parent="1" source="TcHvKYpfrDNnKEBKE9mk-65" target="TcHvKYpfrDNnKEBKE9mk-19">
          <mxGeometry relative="1" as="geometry" />
        </mxCell>
        <mxCell id="TcHvKYpfrDNnKEBKE9mk-72" style="edgeStyle=orthogonalEdgeStyle;rounded=0;orthogonalLoop=1;jettySize=auto;html=1;exitX=0.375;exitY=1;exitDx=0;exitDy=0;entryX=0;entryY=0.5;entryDx=0;entryDy=0;startArrow=none;startFill=0;endArrow=none;endFill=0;dashed=1;dashPattern=8 8;strokeWidth=3;" edge="1" parent="1" source="TcHvKYpfrDNnKEBKE9mk-65" target="TcHvKYpfrDNnKEBKE9mk-18">
          <mxGeometry relative="1" as="geometry" />
        </mxCell>
        <mxCell id="TcHvKYpfrDNnKEBKE9mk-73" style="edgeStyle=orthogonalEdgeStyle;rounded=0;orthogonalLoop=1;jettySize=auto;html=1;exitX=1;exitY=0.75;exitDx=0;exitDy=0;entryX=0;entryY=0.5;entryDx=0;entryDy=0;startArrow=none;startFill=0;endArrow=none;endFill=0;dashed=1;dashPattern=8 8;strokeWidth=3;" edge="1" parent="1" source="TcHvKYpfrDNnKEBKE9mk-65" target="TcHvKYpfrDNnKEBKE9mk-23">
          <mxGeometry relative="1" as="geometry" />
        </mxCell>
        <mxCell id="TcHvKYpfrDNnKEBKE9mk-65" value="&lt;b style=&quot;&quot;&gt;&lt;font style=&quot;font-size: 36px;&quot;&gt;Controller&lt;/font&gt;&lt;/b&gt;" style="shape=hexagon;perimeter=hexagonPerimeter2;whiteSpace=wrap;html=1;fixedSize=1;" vertex="1" parent="1">
          <mxGeometry x="1360" y="-1010" width="170" height="155" as="geometry" />
        </mxCell>
        <mxCell id="TcHvKYpfrDNnKEBKE9mk-74" value="" style="rounded=0;whiteSpace=wrap;html=1;" vertex="1" parent="1">
          <mxGeometry x="1220" y="-1460" width="120" height="1310" as="geometry" />
        </mxCell>
        <mxCell id="TcHvKYpfrDNnKEBKE9mk-77" style="edgeStyle=orthogonalEdgeStyle;rounded=0;orthogonalLoop=1;jettySize=auto;html=1;exitX=0;exitY=0.5;exitDx=0;exitDy=0;entryX=1;entryY=0.416;entryDx=0;entryDy=0;entryPerimeter=0;endArrow=none;endFill=0;startArrow=none;startFill=0;dashed=1;dashPattern=8 8;strokeWidth=3;" edge="1" parent="1" source="TcHvKYpfrDNnKEBKE9mk-65" target="TcHvKYpfrDNnKEBKE9mk-74">
          <mxGeometry relative="1" as="geometry" />
        </mxCell>
        <mxCell id="TcHvKYpfrDNnKEBKE9mk-79" value="&lt;b&gt;&lt;font style=&quot;font-size: 24px;&quot;&gt;Get ressource&lt;/font&gt;&lt;/b&gt;" style="text;html=1;align=center;verticalAlign=middle;resizable=0;points=[];autosize=1;strokeColor=none;fillColor=none;" vertex="1" parent="1">
          <mxGeometry x="265" y="-640" width="180" height="40" as="geometry" />
        </mxCell>
        <mxCell id="TcHvKYpfrDNnKEBKE9mk-80" style="edgeStyle=orthogonalEdgeStyle;rounded=0;orthogonalLoop=1;jettySize=auto;html=1;exitX=1;exitY=0.75;exitDx=0;exitDy=0;entryX=0;entryY=0.588;entryDx=0;entryDy=0;entryPerimeter=0;endArrow=none;endFill=0;startArrow=classic;startFill=1;jumpStyle=none;strokeWidth=3;" edge="1" parent="1" source="TcHvKYpfrDNnKEBKE9mk-40" target="TcHvKYpfrDNnKEBKE9mk-52">
          <mxGeometry relative="1" as="geometry" />
        </mxCell>
        <mxCell id="TcHvKYpfrDNnKEBKE9mk-83" value="&lt;font style=&quot;font-size: 24px;&quot;&gt;Social Media Architecture : &lt;b&gt;Socialize&lt;/b&gt;&lt;/font&gt;" style="shape=umlFrame;whiteSpace=wrap;html=1;pointerEvents=0;recursiveResize=0;container=1;collapsible=0;width=380;height=80;" vertex="1" parent="1">
          <mxGeometry x="-760" y="-1580" width="3080" height="1560" as="geometry" />
        </mxCell>
        <mxCell id="TcHvKYpfrDNnKEBKE9mk-76" value="&lt;b&gt;&lt;font style=&quot;font-size: 48px;&quot;&gt;A P I&lt;/font&gt;&lt;/b&gt;" style="text;html=1;align=center;verticalAlign=middle;resizable=0;points=[];autosize=1;strokeColor=none;fillColor=none;rotation=-90;" vertex="1" parent="TcHvKYpfrDNnKEBKE9mk-83">
          <mxGeometry x="1970" y="580" width="130" height="70" as="geometry" />
        </mxCell>
        <mxCell id="TcHvKYpfrDNnKEBKE9mk-46" value="&lt;font style=&quot;font-size: 24px;&quot;&gt;Give Domain Name&lt;/font&gt;" style="text;html=1;align=center;verticalAlign=middle;resizable=0;points=[];autosize=1;strokeColor=none;fillColor=none;fontSize=12;fontFamily=Helvetica;fontColor=#000000;" vertex="1" parent="TcHvKYpfrDNnKEBKE9mk-83">
          <mxGeometry x="160" y="1160" width="230" height="40" as="geometry" />
        </mxCell>
        <mxCell id="TcHvKYpfrDNnKEBKE9mk-45" value="&lt;font style=&quot;font-size: 24px;&quot;&gt;Return IP address&lt;/font&gt;" style="text;html=1;align=center;verticalAlign=middle;resizable=0;points=[];autosize=1;strokeColor=none;fillColor=none;fontSize=12;fontFamily=Helvetica;fontColor=#000000;" vertex="1" parent="TcHvKYpfrDNnKEBKE9mk-83">
          <mxGeometry x="510" y="1040" width="220" height="40" as="geometry" />
        </mxCell>
        <mxCell id="TcHvKYpfrDNnKEBKE9mk-48" value="&lt;b&gt;&lt;font style=&quot;font-size: 24px;&quot;&gt;Request ressource&lt;/font&gt;&lt;/b&gt;" style="text;html=1;align=center;verticalAlign=middle;resizable=0;points=[];autosize=1;strokeColor=none;fillColor=none;" vertex="1" parent="TcHvKYpfrDNnKEBKE9mk-83">
          <mxGeometry x="1500" y="470" width="240" height="40" as="geometry" />
        </mxCell>
        <mxCell id="TcHvKYpfrDNnKEBKE9mk-86" value="&lt;b&gt;&lt;font style=&quot;font-size: 36px;&quot;&gt;Data base&lt;/font&gt;&lt;/b&gt;" style="text;html=1;align=center;verticalAlign=middle;resizable=0;points=[];autosize=1;strokeColor=none;fillColor=none;" vertex="1" parent="TcHvKYpfrDNnKEBKE9mk-83">
          <mxGeometry x="2840" y="660" width="190" height="60" as="geometry" />
        </mxCell>
        <mxCell id="TcHvKYpfrDNnKEBKE9mk-42" value="" style="image;aspect=fixed;html=1;points=[];align=center;fontSize=12;image=img/lib/azure2/networking/DNS_Zones.svg;dashed=0;strokeColor=default;verticalAlign=top;fontFamily=Helvetica;fontColor=#000000;fillColor=#2E73B8;gradientColor=none;" vertex="1" parent="1">
          <mxGeometry x="-560" y="-250" width="200" height="200" as="geometry" />
        </mxCell>
        <mxCell id="TcHvKYpfrDNnKEBKE9mk-85" style="edgeStyle=orthogonalEdgeStyle;rounded=0;orthogonalLoop=1;jettySize=auto;html=1;exitX=0.5;exitY=1;exitDx=0;exitDy=0;entryX=0.75;entryY=0;entryDx=0;entryDy=0;entryPerimeter=0;dashed=1;dashPattern=8 8;strokeColor=#004c99;strokeWidth=3;endArrow=none;endFill=0;startArrow=classic;startFill=1;" edge="1" parent="1" source="TcHvKYpfrDNnKEBKE9mk-40" target="TcHvKYpfrDNnKEBKE9mk-42">
          <mxGeometry relative="1" as="geometry" />
        </mxCell>
      </root>
    </mxGraphModel>
  </diagram>
</mxfile>
